{"accessors":[{"bufferView":0,"byteOffset":0,"componentType":5126,"count":102,"max":[-0.152735,0.5,0.058487],"min":[-3.116725,-0.5,-0.045517],"normalized":false,"type":"VEC3"},{"bufferView":1,"byteOffset":0,"componentType":5126,"count":102,"max":[0.000092,0.000214,0.291019,1],"min":[-1,-1,-1,-1],"normalized":false,"type":"VEC4"},{"bufferView":2,"byteOffset":0,"componentType":5126,"count":102,"max":[1,1,1],"min":[-1,-1,-1],"normalized":false,"type":"VEC3"},{"bufferView":3,"byteOffset":0,"componentType":5126,"count":102,"max":[1,1],"min":[0,0],"normalized":false,"type":"VEC2"},{"bufferView":4,"byteOffset":0,"componentType":5125,"count":102,"max":[101],"min":[0],"normalized":false,"type":"SCALAR"},{"bufferView":5,"byteOffset":0,"componentType":5126,"count":93,"max":[4.805295,0.5,0.058487],"min":[1.841305,-0.5,-0.045518],"normalized":false,"type":"VEC3"},{"bufferView":6,"byteOffset":0,"componentType":5126,"count":93,"max":[0.000092,0.000275,0.003999,-1],"min":[-1,-1,-1,-1],"normalized":false,"type":"VEC4"},{"bufferView":7,"byteOffset":0,"componentType":5126,"count":93,"max":[1,1,1],"min":[-1,-1,-1],"normalized":false,"type":"VEC3"},{"bufferView":8,"byteOffset":0,"componentType":5126,"count":93,"max":[1,1],"min":[0,0],"normalized":false,"type":"VEC2"},{"bufferView":9,"byteOffset":0,"componentType":5125,"count":93,"max":[92],"min":[0],"normalized":false,"type":"SCALAR"},{"bufferView":10,"byteOffset":0,"componentType":5126,"count":1083,"max":[1.845222,1.596178,0.5],"min":[-0.165347,-0.5,-0.5],"normalized":false,"type":"VEC3"},{"bufferView":11,"byteOffset":0,"componentType":5126,"count":1083,"max":[1,0.990616,0.990596,1],"min":[-1,-1,-1,-1],"normalized":false,"type":"VEC4"},{"bufferView":12,"byteOffset":0,"componentType":5126,"count":1083,"max":[1,1,1],"min":[-1,-1,-1],"normalized":false,"type":"VEC3"},{"bufferView":13,"byteOffset":0,"componentType":5126,"count":1083,"max":[1,1],"min":[0,0],"normalized":false,"type":"VEC2"},{"bufferView":14,"byteOffset":0,"componentType":5125,"count":1083,"max":[1082],"min":[0],"normalized":false,"type":"SCALAR"}],"asset":{"generator":"Godot Engine v4.2.1.stable.official@b09f793f564a6c95dc76acc654b390e68441bd01","version":"2.0"},"bufferViews":[{"buffer":0,"byteLength":1224,"byteOffset":0},{"buffer":0,"byteLength":1632,"byteOffset":1224},{"buffer":0,"byteLength":1224,"byteOffset":2856},{"buffer":0,"byteLength":816,"byteOffset":4080},{"buffer":0,"byteLength":408,"byteOffset":4896},{"buffer":0,"byteLength":1116,"byteOffset":5304},{"buffer":0,"byteLength":1488,"byteOffset":6420},{"buffer":0,"byteLength":1116,"byteOffset":7908},{"buffer":0,"byteLength":744,"byteOffset":9024},{"buffer":0,"byteLength":372,"byteOffset":9768},{"buffer":0,"byteLength":12996,"byteOffset":10140},{"buffer":0,"byteLength":17328,"byteOffset":23136},{"buffer":0,"byteLength":12996,"byteOffset":40464},{"buffer":0,"byteLength":8664,"byteOffset":53460},{"buffer":0,"byteLength":4332,"byteOffset":62124}],"buffers":[{"byteLength":66456,"uri":"satellite_a0.bin"}],"extensionsUsed":["GODOT_single_root"],"materials":[{"extensions":{},"pbrMetallicRoughness":{"baseColorFactor":[0.99999988079071,0.99999988079071,0.99999988079071,1],"metallicFactor":0,"roughnessFactor":1}},{"extensions":{},"pbrMetallicRoughness":{"baseColorFactor":[0.00604882789775729,0.0684781223535538,0.0666261613368988,1],"metallicFactor":0,"roughnessFactor":1}},{"extensions":{},"pbrMetallicRoughness":{"baseColorFactor":[0.99999988079071,0.99999988079071,0.99999988079071,1],"metallicFactor":0,"roughnessFactor":1}}],"meshes":[{"extras":{"targetNames":[]},"primitives":[{"attributes":{"NORMAL":2,"POSITION":0,"TANGENT":1,"TEXCOORD_0":3},"indices":4,"material":0,"mode":4},{"attributes":{"NORMAL":7,"POSITION":5,"TANGENT":6,"TEXCOORD_0":8},"indices":9,"material":1,"mode":4},{"attributes":{"NORMAL":12,"POSITION":10,"TANGENT":11,"TEXCOORD_0":13},"indices":14,"material":2,"mode":4}]}],"nodes":[{"children":[1,2,3,4,5,6,7,8],"extensions":{},"mesh":0,"name":"CSGCombiner3D2","translation":[0,0.2134869992733,0]},{"extensions":{},"name":"CSGBox3D","translation":[-1.63472998142242,0,0.00648450991138816]},{"extensions":{},"name":"CSGBox3D2","translation":[3.32329988479614,0,0.00648450991138816]},{"extensions":{},"name":"CSGBox3D3","translation":[0.781244993209839,0,0]},{"extensions":{},"name":"CSGCylinder3D","rotation":[0,0,0.70710676908493,0.70710676908493],"translation":[0.119214996695518,0,0]},{"extensions":{},"name":"CSGCylinder3D2","rotation":[0,0,0.70710676908493,0.70710676908493],"translation":[1.56066000461578,0,0]},{"extensions":{},"name":"CSGCylinder3D3","translation":[0.831712007522583,0.597931027412415,0]},{"extensions":{},"name":"CSGSphere3D","rotation":[0.382683455944061,0,0,0.923879563808441],"scale":[1,0.499999433755875,1.00000023841858],"translation":[0.83331698179245,1.26955997943878,0.157820999622345]},{"extensions":{},"name":"CSGSphere3D2","rotation":[0.382683455944061,0,0,0.923879563808441],"scale":[1.10000002384186,0.499999433755875,1.09999930858612],"translation":[0.83331698179245,1.35143995285034,0.220202997326851]}],"scene":0,"scenes":[{"nodes":[0]}]}